<svg width="215" height="190" viewBox="0 0 215 190" fill="none" xmlns="http://www.w3.org/2000/svg">
<path fill-rule="evenodd" clip-rule="evenodd" d="M104.663 0.148843C103.421 0.305336 101.295 0.928443 99.9361 1.53432C97.9422 2.42446 52.4112 36.3734 11.9021 67.1781C5.67842 71.9116 3.03418 74.5404 1.45007 77.5741C0.0944312 80.1684 0 80.6379 0 84.8115C0 88.9866 0.0944295 89.4546 1.45311 92.059C3.14232 95.2936 6.42785 98.5714 9.62957 100.214C12.2083 101.536 16.8997 102.58 20.3177 102.591L22.6665 102.599L22.7883 138.697L22.9117 174.795L23.9521 177.224C26.1744 182.41 30.6023 186.43 36.0446 188.202L39.0834 189.191L104.897 189.222C141.094 189.238 172.281 189.103 174.2 188.922C181.119 188.266 187.368 184.085 190.377 178.098L191.824 175.218L192.049 138.863L192.273 102.511L195.779 102.367C203.645 102.047 209.727 98.4307 213.043 92.1049C214.662 89.0167 214.734 88.6937 214.729 84.622C214.723 80.9078 214.571 80.0607 213.526 77.9459C212.866 76.615 211.358 74.549 210.175 73.3559C208.991 72.1629 199.034 64.3928 188.048 56.0872C177.062 47.783 166.848 40.0229 165.349 38.8428C157.825 32.9176 118.901 3.6965 117.09 2.6111C113.648 0.549414 108.914 -0.388115 104.663 0.148843ZM105.196 18.9495C103.616 19.9588 98.4936 23.7907 56.8285 55.1367C21.483 81.7261 17.5014 84.8445 18.3071 85.3011C18.3681 85.3355 22.0907 85.4791 26.5811 85.6184C34.7377 85.8725 34.7423 85.8725 36.6889 87.1474C37.8237 87.894 39.0544 89.2076 39.6454 90.3074C40.6507 92.181 40.6553 92.2987 40.6553 112.004C40.6553 122.9 40.8076 131.808 40.9935 131.801C41.589 131.777 54.7052 116.218 57.8779 111.771C64.6774 102.241 66.2265 97.5707 66.4657 85.8725C66.8129 68.8923 70.3376 55.1425 75.6169 50.1663C79.6275 46.3875 86.3584 46.1908 93.6103 49.6422C96.9887 51.2488 101.977 55.0204 106.216 59.1725C109.372 62.265 109.698 62.4646 112.135 62.835C119.111 63.8946 127.143 67.4092 133.4 72.1399L137.362 75.1377L146.625 74.9999C155.487 74.8692 155.965 74.9036 157.756 75.8053C158.786 76.325 160.1 77.3731 160.676 78.1354C161.662 79.4362 161.733 79.9617 161.866 86.8172C161.972 92.2614 161.82 95.0539 161.27 97.8263C159.087 108.822 151.523 117.969 139.86 123.724L136.569 125.347L136.425 132.075C136.346 135.775 136.409 140.137 136.566 141.768L136.847 144.731L140.515 146.405C147.146 149.429 152.734 155.849 154.32 162.265C154.69 163.761 154.787 165.865 154.603 168.324L154.32 172.091L163.342 171.961C172.202 171.832 172.379 171.813 173.221 170.831C174.051 169.863 174.079 168.594 174.082 131.451C174.083 106.356 174.245 92.5256 174.548 91.4962C175.146 89.4661 176.887 87.5336 179.059 86.4884C180.549 85.772 181.72 85.66 187.726 85.66C191.545 85.66 194.99 85.5452 195.382 85.403C196.529 84.9881 196.207 84.1497 194.407 82.869C193.481 82.21 182.817 74.1413 170.709 64.9384C144.401 44.9417 113.238 21.3759 110.437 19.3602C108.039 17.6344 107.336 17.5799 105.196 18.9495ZM86.5214 67.9821C85.51 73.2583 85.0926 77.152 84.4468 87.347C83.7614 98.1895 83.1536 101.612 80.8384 107.68C77.8865 115.415 74.2948 120.641 62.513 134.336C53.5932 144.702 48.6459 152.198 45.1761 160.593C42.4481 167.194 41.3224 171.217 42.0764 171.684C42.4069 171.89 50.9505 172.007 61.0964 171.944C77.4341 171.843 79.6716 171.748 80.9085 171.111C85.9989 168.482 87.0926 162.27 83.0531 158.926C80.8506 157.104 79.7996 156.798 75.7342 156.798C72.8447 156.798 71.9689 156.632 70.7092 155.836C65.4497 152.526 67.244 144.656 73.8988 141.847C76.4197 140.783 81.402 140.445 84.7911 141.109C92.4283 142.603 99.5249 148.764 102.286 156.294C103.161 158.68 103.318 159.929 103.281 164.208C103.258 167.003 103.019 169.794 102.749 170.41C102.48 171.028 102.381 171.646 102.53 171.787C102.678 171.928 109.391 172.041 117.445 172.041C130.872 172.041 132.22 171.977 133.655 171.253C138.011 169.058 137.933 163.514 133.519 161.499C131.963 160.789 130.709 160.607 127.329 160.603C122.703 160.596 121.454 160.214 119.989 158.356C119.087 157.212 119.038 156.545 118.824 142.688L118.598 128.216L116.687 127.975C114.504 127.701 112.329 126.034 111.355 123.89C110.344 121.662 110.551 117.384 111.751 115.681C113.01 113.895 116.181 112.34 118.581 112.33C127.789 112.292 138.296 106.169 141.912 98.7321C143.417 95.6396 144.538 91.8307 144.072 91.3928C143.939 91.2679 140.253 91.1645 135.88 91.1645H127.931L126.66 89.4373C123.868 85.6413 117.635 81.4619 112.25 79.7735C110.732 79.2983 107.499 78.78 105.062 78.6207L100.629 78.3321L97.9468 75.5382C93.7017 71.119 87.6927 65.336 87.3455 65.336C87.1718 65.336 86.8001 66.5262 86.5214 67.9821Z" fill="url(#paint0_linear_1_96)"/>
<path fill-rule="evenodd" clip-rule="evenodd" d="M104.027 92.9922C104.658 91.4172 106.592 89.5063 108.266 88.8013C111.579 87.4073 115.893 88.5515 118.236 91.4459C119.326 92.7926 119.497 93.387 119.497 95.8234C119.497 98.2584 119.326 98.8528 118.239 100.197C116.552 102.28 114.877 103.022 111.86 103.022C109.065 103.022 107.509 102.415 105.712 100.624C103.628 98.5498 102.979 95.6066 104.027 92.9922Z" fill="url(#paint1_linear_1_96)"/>
<defs>
<linearGradient id="paint0_linear_1_96" x1="-122.986" y1="172.286" x2="337.716" y2="172.286" gradientUnits="userSpaceOnUse">
<stop stop-color="#ED4264"/>
<stop offset="1" stop-color="#FFEDBC"/>
</linearGradient>
<linearGradient id="paint1_linear_1_96" x1="-122.986" y1="172.286" x2="337.716" y2="172.286" gradientUnits="userSpaceOnUse">
<stop stop-color="#ED4264"/>
<stop offset="1" stop-color="#FFEDBC"/>
</linearGradient>
</defs>
</svg>
